<svg xmlns="http://www.w3.org/2000/svg" width="158" height="30.898"><g fill="#563c5c"><path d="M0 24.049v-1.167c1.988-.246 2.222-.461 2.222-2.119V5.774C2.222 4.116 1.988 3.9 0 3.655V2.488h9.971c4.532 0 7.135 1.812 7.135 5.375 0 3.1-2.69 4.669-5.5 4.976 3.889.154 6.725 2.058 6.725 5.375 0 3.839-2.749 5.835-7.953 5.835zm7.193-20.24v8.385h1.111c2.69 0 4.035-1.444 4.035-4.269 0-2.734-1.521-4.116-4.065-4.116zm0 9.89v6.941c0 1.658.614 2.089 2.281 2.089h.263c2.339 0 3.713-1.536 3.713-4.577 0-2.764-1.433-4.453-4.591-4.453zM33.86 13.914v.706h-9.445c-.088 4.023 1.93 6.419 4.678 6.419a4.947 4.947 0 0 0 4.386-2.365l.5.307c-.76 3.225-2.954 5.375-6.492 5.375-4.269 0-7.31-3.164-7.31-8.108 0-5.375 3.392-8.907 7.515-8.907 4.061 0 6.168 2.764 6.168 6.573zm-9.386-.553h5.263c0-2.918-.643-4.822-2.368-4.822-1.785 0-2.721 1.996-2.897 4.817zM41.138 7.648h3.626v1.536h-3.626V19.35c0 1.689.614 2.4 1.872 2.4a3.351 3.351 0 0 0 2.135-.829l.409.614a5.33 5.33 0 0 1-4.8 2.826c-2.515 0-4.328-1.352-4.328-4.884V9.184h-1.754v-.86a13.2 13.2 0 0 0 5.468-4.761h.994z"/><path d="M52.102 7.648h3.626v1.536h-3.626V19.35c0 1.689.614 2.4 1.872 2.4a3.352 3.352 0 0 0 2.135-.829l.409.614a5.33 5.33 0 0 1-4.8 2.826c-2.515 0-4.328-1.352-4.328-4.884V9.184h-1.754v-.86a13.2 13.2 0 0 0 5.468-4.761h.994z"/><path d="M70.697 13.914v.706h-9.445c-.088 4.023 1.93 6.419 4.679 6.419a4.947 4.947 0 0 0 4.386-2.365l.5.307c-.76 3.225-2.953 5.375-6.491 5.375-4.269 0-7.31-3.164-7.31-8.108 0-5.375 3.392-8.907 7.514-8.907 4.062 0 6.167 2.764 6.167 6.573zm-9.386-.553h5.263c0-2.918-.643-4.822-2.369-4.822-1.782 0-2.718 1.996-2.896 4.817z"/><path d="M78.358 21.316c0 1.29.643 1.443 2.4 1.628v1.105h-8.831v-1.105c1.258-.092 1.725-.246 1.725-1.259V10.842l-1.7-1.075v-.711l5.644-1.72h.877l-.117 4.638c1.286-3.471 2.222-4.638 4.005-4.638a1.763 1.763 0 0 1 1.375.522v3.747h-.615c-1.842 0-3.362.092-4.766 1.413zM91.924 20.64c0 1.658.731 2.089 2.427 2.089h1.053c2.076 0 3.1-1.352 5.468-5.651h1.111l-1.052 6.972h-16.2v-1.167c1.988-.246 2.222-.461 2.222-2.119V5.774c0-1.658-.234-1.874-2.222-2.119V2.488h9.444v1.167c-2.017.245-2.251.461-2.251 2.119z"/><path d="M116.923 13.914v.706h-9.445c-.088 4.023 1.93 6.419 4.678 6.419a4.948 4.948 0 0 0 4.386-2.365l.5.307c-.76 3.225-2.953 5.375-6.491 5.375-4.269 0-7.311-3.164-7.311-8.108 0-5.375 3.392-8.907 7.515-8.907 4.062 0 6.168 2.764 6.168 6.573zm-9.387-.553h5.263c0-2.918-.643-4.822-2.368-4.822-1.783 0-2.719 1.996-2.895 4.817z"/><path d="M122.038 17.756a2.6 2.6 0 0 0-.936 1.689.906.906 0 0 0 .965.983h6.17c3.655 0 5.38 1.628 5.38 4.392 0 3.9-3.655 6.081-8.714 6.081-4.444 0-7.193-1.351-7.193-3.809 0-1.567 1.375-2.365 2.72-2.7a3.05 3.05 0 0 1-1.872-2.917c0-1.9 1.345-3.133 2.807-4.024a4.614 4.614 0 0 1-2.778-4.392c0-3.594 2.836-5.712 6.7-5.712a7.974 7.974 0 0 1 2.661.43l5.087-.123v1.9h-1.257l-1.93-.092a4.3 4.3 0 0 1 1.842 3.532c0 3.317-2.778 5.252-6.579 5.252a9.345 9.345 0 0 1-3.073-.49zm-1.082 7.187a2.242 2.242 0 0 0-.409 1.474c0 1.966 1.754 3.163 4.5 3.163 2.777 0 5.263-.86 5.263-3.04 0-1.167-.7-1.6-1.989-1.6zm6.345-11.948c0-2.4-.7-4.484-2.223-4.484-1.491 0-2.047 1.6-2.047 4.054 0 2.488.731 4.576 2.251 4.576 1.493-.002 2.019-1.569 2.019-4.149zM147.242 20.67c0 .891.146 1.536.877 1.536a2.6 2.6 0 0 0 1.083-.246l.175.737a4.46 4.46 0 0 1-3.567 1.659 3.078 3.078 0 0 1-3.129-2.642 5.487 5.487 0 0 1-4.474 2.58 3.782 3.782 0 0 1-4.064-4.054c0-2.672 1.783-3.747 3.918-4.576l4.532-1.69v-2.856c0-1.6-.468-2.7-1.813-2.7-1.257 0-1.783 1.044-1.783 2.519a8.149 8.149 0 0 0 .263 2l-2.807.4a2.008 2.008 0 0 1-1.375-2.027c0-2.672 2.632-3.962 6.023-3.962 3.889 0 6.141 1.382 6.141 5.19zm-4.649.215v-5.713l-2.076.86a2.656 2.656 0 0 0-1.871 2.856c0 1.6.644 2.733 2.164 2.733a2.913 2.913 0 0 0 1.782-.735z"/><path d="M156.246 21.684c0 1.013.468 1.167 1.754 1.259v1.101h-8.187v-1.1c1.287-.092 1.754-.246 1.754-1.259V3.133l-1.7-.921v-.768L155.481 0h.76z"/></g></svg>